0
SECTION
2
HEADER
9
$INSUNITS
70
4
9
$ACADVER
1
AC1014
9
$HANDSEED
5
FFFF
0
ENDSEC
0
SECTION
2
TABLES
0
TABLE
2
VPORT
5
8
100
AcDbSymbolTable
0
ENDTAB
0
TABLE
2
LTYPE
5
5
100
AcDbSymbolTable
70
2
0
LTYPE
5
14
100
AcDbSymbolTableRecord
100
AcDbLinetypeTableRecord
2
BYBLOCK
70
0
0
LTYPE
5
15
100
AcDbSymbolTableRecord
100
AcDbLinetypeTableRecord
2
BYLAYER
70
0
0
ENDTAB
0
TABLE
2
LAYER
5
2
100
AcDbSymbolTable
70
3
0
LAYER
5
50
100
AcDbSymbolTableRecord
100
AcDbLayerTableRecord
2
0
70
0
6
CONTINUOUS
0
LAYER
5
51
100
AcDbSymbolTableRecord
100
AcDbLayerTableRecord
2
CUTOUTS
70
0
62
1
6
CONTINUOUS
0
LAYER
5
52
100
AcDbSymbolTableRecord
100
AcDbLayerTableRecord
2
PERIMETER
70
0
62
5
6
CONTINUOUS
0
ENDTAB
0
TABLE
2
STYLE
5
3
100
AcDbSymbolTable
70
1
0
STYLE
5
11
100
AcDbSymbolTableRecord
100
AcDbTextStyleTableRecord
2
STANDARD
70
0
0
ENDTAB
0
TABLE
2
VIEW
5
6
100
AcDbSymbolTable
0
ENDTAB
0
TABLE
2
UCS
5
7
100
AcDbSymbolTable
0
ENDTAB
0
TABLE
2
APPID
5
9
100
AcDbSymbolTable
70
1
0
APPID
5
12
100
AcDbSymbolTableRecord
100
AcDbRegAppTableRecord
2
ACAD
70
0
0
ENDTAB
0
TABLE
2
DIMSTYLE
5
A
100
AcDbSymbolTable
0
ENDTAB
0
TABLE
2
BLOCK_RECORD
5
1
100
AcDbSymbolTable
70
2
0
BLOCK_RECORD
5
1F
100
AcDbSymbolTableRecord
100
AcDbBlockTableRecord
2
*MODEL_SPACE
0
BLOCK_RECORD
5
1B
100
AcDbSymbolTableRecord
100
AcDbBlockTableRecord
2
*PAPER_SPACE
0
ENDTAB
0
ENDSEC
0
SECTION
2
BLOCKS
0
BLOCK
5
20
100
AcDbEntity
100
AcDbBlockBegin
2
*MODEL_SPACE
0
ENDBLK
5
21
100
AcDbEntity
100
AcDbBlockEnd
0
BLOCK
5
1C
100
AcDbEntity
100
AcDbBlockBegin
2
*PAPER_SPACE
0
ENDBLK
5
1D
100
AcDbEntity
100
AcDbBlockEnd
0
ENDSEC
0
SECTION
2
ENTITIES
0
LINE
5
100
100
AcDbEntity
8
CUTOUTS
100
AcDbLine
10
74.721089417849583
20
-2.1574225538183045
30
0
11
80.904878477058617
21
-19.766439594822828
31
0
0
LINE
5
101
100
AcDbEntity
8
CUTOUTS
100
AcDbLine
10
80.904878477058617
20
-19.766439594822828
30
0
11
62.867365765514585
21
-19.766439594822828
31
0
0
LINE
5
102
100
AcDbEntity
8
CUTOUTS
100
AcDbLine
10
62.867365765514585
20
-19.766439594822828
30
0
11
62.867365765514585
21
1.2784300203389609
31
0
0
SPLINE
5
103
100
AcDbEntity
8
CUTOUTS
100
AcDbSpline
70
0
71
3
72
23
73
19
74
0
42
0.000000001
43
0.0000000001
44
0.0000000001
40
0
40
0
40
0
40
0
40
0.027345113137085
40
0.027345113137085
40
0.027345113137085
40
0.054690226274171111
40
0.054690226274171111
40
0.054690226274171111
40
0.082035339411256403
40
0.082035339411256403
40
0.082035339411256403
40
0.10938045254834192
40
0.10938045254834192
40
0.10938045254834192
40
0.13195517798632389
40
0.13195517798632389
40
0.13195517798632389
40
0.15452990342430761
40
0.15452990342430761
40
0.15452990342430761
40
0.15452990342430761
10
62.867365765514585
20
1.2784300203389609
30
0
10
62.867365765514585
20
1.3598142856279072
30
0
10
62.883261922242468
20
1.4404204729828374
30
0
10
62.914159488701813
20
1.515711501821011
30
0
10
62.945057055161158
20
1.5910025306591979
30
0
10
62.99036523620029
20
1.6595387544356743
30
0
10
63.047533770168407
20
1.7174624746248979
30
0
10
63.104702304136509
20
1.7753861948141259
30
0
10
63.172638066345577
20
1.8215898467443381
30
0
10
63.247517156451167
20
1.8534727653933736
30
0
10
63.32239624655675
20
1.8853556840424091
30
0
10
63.402786894731513
20
1.9023082332506291
30
0
10
63.484164152446859
20
1.9033762048565528
30
0
10
63.551345050203992
20
1.9042578675382327
30
0
10
63.618230710919129
20
1.8943010018528339
30
0
10
63.682241834272737
20
1.8738895727125549
30
0
10
63.746252957626346
20
1.8534781435722714
30
0
10
63.80655601250379
20
1.8228779416770946
30
0
10
63.860825542491078
20
1.7832689973905058
30
0
0
SPLINE
5
104
100
AcDbEntity
8
CUTOUTS
100
AcDbSpline
70
0
71
3
72
11
73
7
74
0
42
0.000000001
43
0.0000000001
44
0.0000000001
40
-0.95664110498734911
40
-0.95664110498734911
40
-0.95664110498734911
40
-0.95664110498734911
40
-0.33533542004692252
40
-0.33533542004692252
40
-0.33533542004692252
40
-0.12441110251453749
40
-0.12441110251453749
40
-0.12441110251453749
40
-0.12441110251453749
10
73.814356837078364
20
-1.5395320087614106
30
0
10
70.378695248485769
20
-1.6658376761541849
30
0
10
67.983488950106874
20
-0.74926586134901552
30
0
10
65.890784566761965
20
0.45642471529511841
30
0
10
65.180341616450988
20
0.86573927364859138
30
0
10
64.507305528027018
20
1.3114316747623178
30
0
10
63.860825542491064
20
1.7832689973905058
30
0
0
SPLINE
5
105
100
AcDbEntity
8
CUTOUTS
100
AcDbSpline
70
0
71
3
72
17
73
13
74
0
42
0.000000001
43
0.0000000001
44
0.0000000001
40
0
40
0
40
0
40
0
40
0.039064447338693117
40
0.039064447338693117
40
0.039064447338693117
40
0.078128894677385846
40
0.078128894677385846
40
0.078128894677385846
40
0.10270907329152605
40
0.10270907329152605
40
0.10270907329152605
40
0.1272892519056662
40
0.1272892519056662
40
0.1272892519056662
40
0.1272892519056662
10
73.814356837078364
20
-1.5395320087614195
30
0
10
73.934724237239365
20
-1.5351069265996165
30
0
10
74.054805176394908
20
-1.5542345804595614
30
0
10
74.167840658551299
20
-1.5958383320611258
30
0
10
74.280876140707704
20
-1.6374420836626902
30
0
10
74.384704804227951
20
-1.7007264239236619
30
0
10
74.473482444980192
20
-1.7821292670934064
30
0
10
74.529343219041905
20
-1.8333496621360768
30
0
10
74.578697822223589
20
-1.8912417969876927
30
0
10
74.620435370069714
20
-1.9545026225189321
30
0
10
74.662172917915825
20
-2.0177634480501583
30
0
10
74.695977897189152
20
-2.0859147467115191
30
0
10
74.721089417849583
20
-2.1574225538183045
30
0
0
LINE
5
106
100
AcDbEntity
8
CUTOUTS
100
AcDbLine
10
-62.86736576551462
20
-19.766439594822828
30
0
11
-80.904878477058659
21
-19.766439594822828
31
0
0
LINE
5
107
100
AcDbEntity
8
CUTOUTS
100
AcDbLine
10
-80.904878477058659
20
-19.766439594822828
30
0
11
-74.721089417849626
21
-2.1574225538183045
31
0
0
SPLINE
5
108
100
AcDbEntity
8
CUTOUTS
100
AcDbSpline
70
0
71
3
72
17
73
13
74
0
42
0.000000001
43
0.0000000001
44
0.0000000001
40
0
40
0
40
0
40
0
40
0.039064447338693117
40
0.039064447338693117
40
0.039064447338693117
40
0.078128894677385846
40
0.078128894677385846
40
0.078128894677385846
40
0.10270907329152605
40
0.10270907329152605
40
0.10270907329152605
40
0.1272892519056662
40
0.1272892519056662
40
0.1272892519056662
40
0.1272892519056662
10
-73.814356837078407
20
-1.5395320087614195
30
0
10
-73.934724237239394
20
-1.5351069265996165
30
0
10
-74.05480517639495
20
-1.5542345804595614
30
0
10
-74.167840658551341
20
-1.5958383320611258
30
0
10
-74.280876140707747
20
-1.6374420836626902
30
0
10
-74.384704804227979
20
-1.7007264239236619
30
0
10
-74.473482444980235
20
-1.7821292670934064
30
0
10
-74.529343219041934
20
-1.8333496621360768
30
0
10
-74.578697822223617
20
-1.8912417969876927
30
0
10
-74.620435370069742
20
-1.9545026225189321
30
0
10
-74.662172917915854
20
-2.0177634480501583
30
0
10
-74.695977897189195
20
-2.0859147467115191
30
0
10
-74.721089417849612
20
-2.1574225538183045
30
0
0
SPLINE
5
109
100
AcDbEntity
8
CUTOUTS
100
AcDbSpline
70
0
71
3
72
11
73
7
74
0
42
0.000000001
43
0.0000000001
44
0.0000000001
40
-0.95664110498734911
40
-0.95664110498734911
40
-0.95664110498734911
40
-0.95664110498734911
40
-0.33533542004692252
40
-0.33533542004692252
40
-0.33533542004692252
40
-0.12441110251453749
40
-0.12441110251453749
40
-0.12441110251453749
40
-0.12441110251453749
10
-73.814356837078407
20
-1.5395320087614106
30
0
10
-70.378695248485812
20
-1.6658376761541849
30
0
10
-67.983488950106917
20
-0.74926586134901552
30
0
10
-65.890784566761994
20
0.45642471529511841
30
0
10
-65.180341616451031
20
0.86573927364859138
30
0
10
-64.507305528027047
20
1.3114316747623178
30
0
10
-63.860825542491099
20
1.7832689973905058
30
0
0
SPLINE
5
10A
100
AcDbEntity
8
CUTOUTS
100
AcDbSpline
70
0
71
3
72
23
73
19
74
0
42
0.000000001
43
0.0000000001
44
0.0000000001
40
0
40
0
40
0
40
0
40
0.027345113137085
40
0.027345113137085
40
0.027345113137085
40
0.054690226274171111
40
0.054690226274171111
40
0.054690226274171111
40
0.082035339411256403
40
0.082035339411256403
40
0.082035339411256403
40
0.10938045254834192
40
0.10938045254834192
40
0.10938045254834192
40
0.13195517798632389
40
0.13195517798632389
40
0.13195517798632389
40
0.15452990342430761
40
0.15452990342430761
40
0.15452990342430761
40
0.15452990342430761
10
-62.86736576551462
20
1.2784300203389609
30
0
10
-62.86736576551462
20
1.3598142856279072
30
0
10
-62.883261922242504
20
1.4404204729828374
30
0
10
-62.914159488701848
20
1.515711501821011
30
0
10
-62.945057055161193
20
1.5910025306591979
30
0
10
-62.990365236200326
20
1.6595387544356743
30
0
10
-63.047533770168442
20
1.7174624746248979
30
0
10
-63.104702304136552
20
1.7753861948141259
30
0
10
-63.172638066345613
20
1.8215898467443381
30
0
10
-63.247517156451202
20
1.8534727653933736
30
0
10
-63.322396246556785
20
1.8853556840424091
30
0
10
-63.402786894731548
20
1.9023082332506291
30
0
10
-63.484164152446894
20
1.9033762048565528
30
0
10
-63.551345050204027
20
1.9042578675382327
30
0
10
-63.618230710919164
20
1.8943010018528339
30
0
10
-63.682241834272773
20
1.8738895727125549
30
0
10
-63.746252957626382
20
1.8534781435722714
30
0
10
-63.806556012503826
20
1.8228779416770946
30
0
10
-63.860825542491114
20
1.7832689973905058
30
0
0
LINE
5
10B
100
AcDbEntity
8
CUTOUTS
100
AcDbLine
10
-62.86736576551462
20
1.2784300203389609
30
0
11
-62.86736576551462
21
-19.766439594822828
31
0
0
LINE
5
10C
100
AcDbEntity
8
PERIMETER
100
AcDbLine
10
54.547490349285646
20
4.8578406997689649
30
0
11
54.547490349285638
21
-6.3306538683970759
31
0
0
LINE
5
10D
100
AcDbEntity
8
PERIMETER
100
AcDbLine
10
54.547490349285638
20
-6.3306538683970759
30
0
11
33.848141458158253
21
-6.3306538683970759
31
0
0
SPLINE
5
10E
100
AcDbEntity
8
PERIMETER
100
AcDbSpline
70
0
71
3
72
11
73
7
74
0
42
0.000000001
43
0.0000000001
44
0.0000000001
40
0
40
0
40
0
40
0
40
0.030397168128995643
40
0.030397168128995643
40
0.030397168128995643
40
0.060794336257991091
40
0.060794336257991091
40
0.060794336257991091
40
0.060794336257991091
10
33.848141458158253
20
-6.3306538683970803
30
0
10
33.743017918378804
20
-6.3306538683970803
30
0
10
33.638046203529356
20
-6.3386425131795621
30
0
10
33.534133327634223
20
-6.3545507764085807
30
0
10
33.430220451739103
20
-6.3704590396375904
30
0
10
33.327666567649715
20
-6.3942409702168357
30
0
10
33.227357797987317
20
-6.4256910790334132
30
0
0
SPLINE
5
10F
100
AcDbEntity
8
PERIMETER
100
AcDbSpline
70
0
71
3
72
17
73
13
74
0
42
0.000000001
43
0.0000000001
44
0.0000000001
40
-0.003422237816129315
40
-0.003422237816129315
40
-0.003422237816129315
40
-0.003422237816129315
40
0
40
0
40
0
40
0.45162298790514777
40
0.45162298790514777
40
0.45162298790514777
40
0.90008464308003955
40
0.90008464308003955
40
0.90008464308003955
40
0.99106282041850158
40
0.99106282041850158
40
0.99106282041850158
40
0.99106282041850158
10
3.424999999999994
20
-10.874483042233432
30
0
10
3.4499999999999904
20
-10.874483042233432
30
0
10
3.4749999999999872
20
-10.874483042233432
30
0
10
3.4999999999999831
20
-10.874483042233432
30
0
10
6.7947035260657191
20
-10.874483042233432
30
0
10
11.065894440675876
20
-10.584576655547796
30
0
10
15.747205529027665
20
-10.015992315910992
30
0
10
20.395747731914252
20
-9.4513880311671947
30
0
10
25.38438063174949
20
-8.6104646442370747
30
0
10
30.265662558864406
20
-7.289887858240256
30
0
10
31.255914741363497
20
-7.0219860930857259
30
0
10
32.243404568644571
20
-6.7341928803954065
30
0
10
33.22735779798731
20
-6.4256910790334132
30
0
0
LINE
5
110
100
AcDbEntity
8
PERIMETER
100
AcDbLine
10
3.424999999999994
20
-10.874483042233432
30
0
11
3.4249999999999914
21
-17.374483042233432
31
0
0
LINE
5
111
100
AcDbEntity
8
PERIMETER
100
AcDbLine
10
3.4249999999999914
20
-17.374483042233432
30
0
11
-3.4250000000000269
21
-17.374483042233432
31
0
0
LINE
5
112
100
AcDbEntity
8
PERIMETER
100
AcDbLine
10
-3.4250000000000269
20
-17.374483042233432
30
0
11
-3.4250000000000269
21
-10.874483042233432
31
0
0
SPLINE
5
113
100
AcDbEntity
8
PERIMETER
100
AcDbSpline
70
0
71
3
72
17
73
13
74
0
42
0.000000001
43
0.0000000001
44
0.0000000001
40
-0.0034222378161293115
40
-0.0034222378161293115
40
-0.0034222378161293115
40
-0.0034222378161293115
40
0
40
0
40
0
40
0.45162298790514777
40
0.45162298790514777
40
0.45162298790514777
40
0.90008464308003955
40
0.90008464308003955
40
0.90008464308003955
40
0.99106282041850158
40
0.99106282041850158
40
0.99106282041850158
40
0.99106282041850158
10
-3.4250000000000291
20
-10.874483042233432
30
0
10
-3.4500000000000259
20
-10.874483042233432
30
0
10
-3.4750000000000227
20
-10.874483042233432
30
0
10
-3.5000000000000187
20
-10.874483042233432
30
0
10
-6.7947035260657547
20
-10.874483042233432
30
0
10
-11.065894440675912
20
-10.584576655547796
30
0
10
-15.747205529027701
20
-10.015992315910992
30
0
10
-20.395747731914287
20
-9.4513880311671947
30
0
10
-25.384380631749526
20
-8.6104646442370747
30
0
10
-30.265662558864442
20
-7.289887858240256
30
0
10
-31.255914741363533
20
-7.0219860930857259
30
0
10
-32.243404568644607
20
-6.7341928803954065
30
0
10
-33.227357797987345
20
-6.4256910790334132
30
0
0
SPLINE
5
114
100
AcDbEntity
8
PERIMETER
100
AcDbSpline
70
0
71
3
72
11
73
7
74
0
42
0.000000001
43
0.0000000001
44
0.0000000001
40
0
40
0
40
0
40
0
40
0.030397168128995643
40
0.030397168128995643
40
0.030397168128995643
40
0.060794336257991091
40
0.060794336257991091
40
0.060794336257991091
40
0.060794336257991091
10
-33.848141458158288
20
-6.3306538683970803
30
0
10
-33.74301791837884
20
-6.3306538683970803
30
0
10
-33.638046203529392
20
-6.3386425131795621
30
0
10
-33.534133327634258
20
-6.3545507764085807
30
0
10
-33.430220451739139
20
-6.3704590396375904
30
0
10
-33.32766656764975
20
-6.3942409702168357
30
0
10
-33.227357797987352
20
-6.4256910790334132
30
0
0
LINE
5
115
100
AcDbEntity
8
PERIMETER
100
AcDbLine
10
-33.848141458158288
20
-6.3306538683970803
30
0
11
-54.547490349285674
21
-6.3306538683970759
31
0
0
LINE
5
116
100
AcDbEntity
8
PERIMETER
100
AcDbLine
10
-54.547490349285674
20
-6.3306538683970759
30
0
11
-54.547490349285674
21
4.8578406997689649
31
0
0
SPLINE
5
117
100
AcDbEntity
8
PERIMETER
100
AcDbSpline
70
0
71
3
72
11
73
7
74
0
42
0.000000001
43
0.0000000001
44
0.0000000001
40
0
40
0
40
0
40
0
40
0.076717011528563153
40
0.076717011528563153
40
0.076717011528563153
40
0.153434023057127
40
0.153434023057127
40
0.153434023057127
40
0.153434023057127
10
-55.125402614116226
20
6.2946264573560873
30
0
10
-54.941692764901418
20
6.1032062956256494
30
0
10
-54.79638918748968
20
5.878316340782872
30
0
10
-54.69738229381494
20
5.6321687793074116
30
0
10
-54.598375400140199
20
5.3860212178319467
30
0
10
-54.547490349285674
20
5.1231536979719117
30
0
10
-54.547490349285674
20
4.8578406997689649
30
0
0
SPLINE
5
118
100
AcDbEntity
8
PERIMETER
100
AcDbSpline
70
0
71
3
72
14
73
10
74
0
42
0.000000001
43
0.0000000001
44
0.0000000001
40
0.035125627689667302
40
0.035125627689667302
40
0.035125627689667302
40
0.035125627689667302
40
0.45579042931886088
40
0.45579042931886088
40
0.45579042931886088
40
0.93147984416264284
40
0.93147984416264284
40
0.93147984416264284
40
0.97254293885532572
40
0.97254293885532572
40
0.97254293885532572
40
0.97254293885532572
10
-55.125402614116226
20
6.2946264573561006
30
0
10
-57.304791749676262
20
8.5654846752769629
30
0
10
-58.999701635824607
20
11.127366525581866
30
0
10
-60.53807532038806
20
14.1835240423265
30
0
10
-62.27767434314184
20
17.639439001648803
30
0
10
-63.863720570397703
20
21.762500695464468
30
0
10
-65.721913352556868
20
27.428617245379176
30
0
10
-65.882318742691766
20
27.91773529839563
30
0
10
-66.044464083139673
20
28.418107247400176
30
0
10
-66.208416130245013
20
28.92994265506848
30
0
0
SPLINE
5
119
100
AcDbEntity
8
PERIMETER
100
AcDbSpline
70
0
71
3
72
17
73
13
74
0
42
0.000000001
43
0.0000000001
44
0.0000000001
40
0
40
0
40
0
40
0
40
0.058596671008038503
40
0.058596671008038503
40
0.058596671008038503
40
0.1171933420160783
40
0.1171933420160783
40
0.1171933420160783
40
0.1533843788809936
40
0.1533843788809936
40
0.1533843788809936
40
0.18957541574590811
40
0.18957541574590811
40
0.18957541574590811
40
0.18957541574590811
10
-67.708343981987994
20
30.024483042233413
30
0
10
-67.503255633459858
20
30.024483042233413
30
0
10
-67.300128041325436
20
29.984424727279141
30
0
10
-67.110394648653227
20
29.906562859801596
30
0
10
-66.920661255981017
20
29.828700992324052
30
0
10
-66.747949972064276
20
29.714524376105423
30
0
10
-66.601982197187425
20
29.570459670505812
30
0
10
-66.511828182790737
20
29.481481047973258
30
0
10
-66.432736570786901
20
29.381950561275477
30
0
10
-66.366422997296738
20
29.274027201660434
30
0
10
-66.30010942380656
20
29.16610384204542
30
0
10
-66.247056867045472
20
29.0505736421288
30
0
10
-66.208416130244998
20
28.929942655068487
30
0
0
LINE
5
11A
100
AcDbEntity
8
PERIMETER
100
AcDbLine
10
-67.708343981987994
20
30.024483042233413
30
0
11
-70.655207581614874
21
30.024483042233431
31
0
0
ARC
5
11B
100
AcDbEntity
8
PERIMETER
100
AcDbCircle
10
-70.655207581614874
20
27.949483042233435
30
0
40
2.0749999999999957
210
0
220
-0
230
1
100
AcDbArc
50
90
51
160.09944733554127
0
LINE
5
11C
100
AcDbEntity
8
PERIMETER
100
AcDbLine
10
-72.606298632351908
20
28.655789428820647
30
0
11
-93.848900917532944
21
-30.024483042233431
31
0
0
LINE
5
11D
100
AcDbEntity
8
PERIMETER
100
AcDbLine
10
-93.848900917532944
20
-30.024483042233431
30
0
11
93.848900917532916
21
-30.024483042233435
31
0
0
LINE
5
11E
100
AcDbEntity
8
PERIMETER
100
AcDbLine
10
93.848900917532916
20
-30.024483042233435
30
0
11
72.606298632351852
21
28.65578942882064
31
0
0
ARC
5
11F
100
AcDbEntity
8
PERIMETER
100
AcDbCircle
10
70.655207581614846
20
27.949483042233446
30
0
40
2.0749999999999829
210
0
220
-0
230
1
100
AcDbArc
50
19.900552664458584
51
90
0
LINE
5
120
100
AcDbEntity
8
PERIMETER
100
AcDbLine
10
70.655207581614846
20
30.024483042233424
30
0
11
67.708343981987952
21
30.024483042233431
31
0
0
SPLINE
5
121
100
AcDbEntity
8
PERIMETER
100
AcDbSpline
70
0
71
3
72
17
73
13
74
0
42
0.000000001
43
0.0000000001
44
0.0000000001
40
0
40
0
40
0
40
0
40
0.058596671008038503
40
0.058596671008038503
40
0.058596671008038503
40
0.1171933420160783
40
0.1171933420160783
40
0.1171933420160783
40
0.1533843788809936
40
0.1533843788809936
40
0.1533843788809936
40
0.18957541574590811
40
0.18957541574590811
40
0.18957541574590811
40
0.18957541574590811
10
67.708343981987952
20
30.024483042233413
30
0
10
67.50325563345983
20
30.024483042233413
30
0
10
67.300128041325408
20
29.984424727279141
30
0
10
67.110394648653198
20
29.906562859801596
30
0
10
66.920661255980974
20
29.828700992324052
30
0
10
66.747949972064248
20
29.714524376105423
30
0
10
66.601982197187397
20
29.570459670505812
30
0
10
66.511828182790694
20
29.481481047973258
30
0
10
66.432736570786858
20
29.381950561275477
30
0
10
66.366422997296695
20
29.274027201660434
30
0
10
66.300109423806532
20
29.16610384204542
30
0
10
66.247056867045444
20
29.0505736421288
30
0
10
66.20841613024497
20
28.929942655068487
30
0
0
SPLINE
5
122
100
AcDbEntity
8
PERIMETER
100
AcDbSpline
70
0
71
3
72
14
73
10
74
0
42
0.000000001
43
0.0000000001
44
0.0000000001
40
0.035125627689667302
40
0.035125627689667302
40
0.035125627689667302
40
0.035125627689667302
40
0.45579042931886088
40
0.45579042931886088
40
0.45579042931886088
40
0.93147984416264284
40
0.93147984416264284
40
0.93147984416264284
40
0.97254293885532572
40
0.97254293885532572
40
0.97254293885532572
40
0.97254293885532572
10
55.12540261411619
20
6.2946264573561006
30
0
10
57.304791749676227
20
8.5654846752769629
30
0
10
58.999701635824579
20
11.127366525581866
30
0
10
60.538075320388025
20
14.1835240423265
30
0
10
62.277674343141804
20
17.639439001648803
30
0
10
63.86372057039766
20
21.762500695464468
30
0
10
65.721913352556825
20
27.428617245379176
30
0
10
65.882318742691723
20
27.91773529839563
30
0
10
66.04446408313963
20
28.418107247400176
30
0
10
66.208416130244984
20
28.92994265506848
30
0
0
SPLINE
5
123
100
AcDbEntity
8
PERIMETER
100
AcDbSpline
70
0
71
3
72
11
73
7
74
0
42
0.000000001
43
0.0000000001
44
0.0000000001
40
0
40
0
40
0
40
0
40
0.076717011528563153
40
0.076717011528563153
40
0.076717011528563153
40
0.153434023057127
40
0.153434023057127
40
0.153434023057127
40
0.153434023057127
10
55.12540261411619
20
6.2946264573560873
30
0
10
54.94169276490139
20
6.1032062956256494
30
0
10
54.796389187489645
20
5.878316340782872
30
0
10
54.697382293814904
20
5.6321687793074116
30
0
10
54.598375400140156
20
5.3860212178319467
30
0
10
54.547490349285638
20
5.1231536979719117
30
0
10
54.547490349285638
20
4.8578406997689649
30
0
0
ENDSEC
0
SECTION
2
OBJECTS
0
DICTIONARY
5
C
100
AcDbDictionary
3
ACAD_GROUP
350
D
3
ACAD_MLINESTYLE
350
17
0
DICTIONARY
5
D
100
AcDbDictionary
0
DICTIONARY
5
1A
330
C
100
AcDbDictionary
0
DICTIONARY
5
17
100
AcDbDictionary
0
ENDSEC
0
EOF
