0
SECTION
2
HEADER
9
$INSUNITS
70
4
9
$ACADVER
1
AC1014
9
$HANDSEED
5
FFFF
0
ENDSEC
0
SECTION
2
TABLES
0
TABLE
2
VPORT
5
8
100
AcDbSymbolTable
0
ENDTAB
0
TABLE
2
LTYPE
5
5
100
AcDbSymbolTable
70
2
0
LTYPE
5
14
100
AcDbSymbolTableRecord
100
AcDbLinetypeTableRecord
2
BYBLOCK
70
0
0
LTYPE
5
15
100
AcDbSymbolTableRecord
100
AcDbLinetypeTableRecord
2
BYLAYER
70
0
0
ENDTAB
0
TABLE
2
LAYER
5
2
100
AcDbSymbolTable
70
3
0
LAYER
5
50
100
AcDbSymbolTableRecord
100
AcDbLayerTableRecord
2
0
70
0
6
CONTINUOUS
0
LAYER
5
51
100
AcDbSymbolTableRecord
100
AcDbLayerTableRecord
2
CUTOUTS
70
0
62
1
6
CONTINUOUS
0
LAYER
5
52
100
AcDbSymbolTableRecord
100
AcDbLayerTableRecord
2
PERIMETER
70
0
62
5
6
CONTINUOUS
0
ENDTAB
0
TABLE
2
STYLE
5
3
100
AcDbSymbolTable
70
1
0
STYLE
5
11
100
AcDbSymbolTableRecord
100
AcDbTextStyleTableRecord
2
STANDARD
70
0
0
ENDTAB
0
TABLE
2
VIEW
5
6
100
AcDbSymbolTable
0
ENDTAB
0
TABLE
2
UCS
5
7
100
AcDbSymbolTable
0
ENDTAB
0
TABLE
2
APPID
5
9
100
AcDbSymbolTable
70
1
0
APPID
5
12
100
AcDbSymbolTableRecord
100
AcDbRegAppTableRecord
2
ACAD
70
0
0
ENDTAB
0
TABLE
2
DIMSTYLE
5
A
100
AcDbSymbolTable
0
ENDTAB
0
TABLE
2
BLOCK_RECORD
5
1
100
AcDbSymbolTable
70
2
0
BLOCK_RECORD
5
1F
100
AcDbSymbolTableRecord
100
AcDbBlockTableRecord
2
*MODEL_SPACE
0
BLOCK_RECORD
5
1B
100
AcDbSymbolTableRecord
100
AcDbBlockTableRecord
2
*PAPER_SPACE
0
ENDTAB
0
ENDSEC
0
SECTION
2
BLOCKS
0
BLOCK
5
20
100
AcDbEntity
100
AcDbBlockBegin
2
*MODEL_SPACE
0
ENDBLK
5
21
100
AcDbEntity
100
AcDbBlockEnd
0
BLOCK
5
1C
100
AcDbEntity
100
AcDbBlockBegin
2
*PAPER_SPACE
0
ENDBLK
5
1D
100
AcDbEntity
100
AcDbBlockEnd
0
ENDSEC
0
SECTION
2
ENTITIES
0
LINE
5
100
100
AcDbEntity
8
CUTOUTS
100
AcDbLine
10
56.559407300681443
20
-19.766439594822828
30
0
11
56.559407300681443
21
-1.7780518063950623
31
0
0
ARC
5
101
100
AcDbEntity
8
CUTOUTS
100
AcDbCircle
10
59.984407300681362
20
-1.7780518063950312
30
0
40
3.4249999999999243
210
0
220
0
230
1
100
AcDbArc
50
145.58586357374858
51
180
0
LINE
5
102
100
AcDbEntity
8
CUTOUTS
100
AcDbLine
10
57.158871075144916
20
0.15765737583786521
30
0
11
59.419515625410028
21
3.4574986580223399
31
0
0
SPLINE
5
103
100
AcDbEntity
8
CUTOUTS
100
AcDbSpline
70
0
71
3
72
17
73
13
74
0
42
0.000000001
43
0.0000000001
44
0.0000000001
40
-0.97087283681412384
40
-0.97087283681412384
40
-0.97087283681412384
40
-0.97087283681412384
40
-0.71589968004167559
40
-0.71589968004167559
40
-0.71589968004167559
40
-0.52315733143153131
40
-0.52315733143153131
40
-0.52315733143153131
40
-0.28894330755468733
40
-0.28894330755468733
40
-0.28894330755468733
40
0
40
0
40
0
40
0
10
74.003131128462172
20
-1.3631612612759403
30
0
10
71.86472055795133
20
-1.4108830307429177
30
0
10
69.649926882084955
20
-0.79358659632159601
30
0
10
67.856544735576904
20
0.16008996521569507
30
0
10
66.500869921612264
20
0.88100452191622658
30
0
10
65.420161296495522
20
1.7820075061685259
30
0
10
64.690783591338345
20
2.621563740746562
30
0
10
63.804468318733385
20
3.6417642591554378
30
0
10
63.443296190662807
20
4.5383339770380893
30
0
10
62.736796464524247
20
4.8781734985534575
30
0
10
61.865207461107872
20
5.2974240359853475
30
0
10
60.413593418143982
20
4.9085445280073348
30
0
10
59.419515625410028
20
3.4574986580223399
30
0
0
SPLINE
5
104
100
AcDbEntity
8
CUTOUTS
100
AcDbSpline
70
0
71
3
72
17
73
13
74
0
42
0.000000001
43
0.0000000001
44
0.0000000001
40
0
40
0
40
0
40
0
40
0.039064447338693145
40
0.039064447338693145
40
0.039064447338693145
40
0.07812889467738586
40
0.07812889467738586
40
0.07812889467738586
40
0.10257991609417584
40
0.10257991609417584
40
0.10257991609417584
40
0.12703093751096498
40
0.12703093751096498
40
0.12703093751096498
40
0.12703093751096498
10
74.003131128446554
20
-1.3631612612762911
30
0
10
74.123549859054961
20
-1.3604739406183786
30
0
10
74.243342214447068
20
-1.3813327680128751
30
0
10
74.355765442143905
20
-1.4245636626124458
30
0
10
74.468188669840742
20
-1.4677945572120166
30
0
10
74.571093115177959
20
-1.5325708971866092
30
0
10
74.658686595493933
20
-1.6152466165955781
30
0
10
74.713512663929194
20
-1.6669945849820378
30
0
10
74.761807225348761
20
-1.7252517789613542
30
0
10
74.802494574543573
20
-1.7887205872666412
30
0
10
74.843181923738399
20
-1.8521893955719193
30
0
10
74.875957713246251
20
-1.9203950620167864
30
0
10
74.900091900460538
20
-1.9918183846761339
30
0
0
LINE
5
105
100
AcDbEntity
8
CUTOUTS
100
AcDbLine
10
74.900091900460538
20
-1.9918183846761384
30
0
11
80.906197749030341
21
-19.766439594822828
31
0
0
LINE
5
106
100
AcDbEntity
8
CUTOUTS
100
AcDbLine
10
80.906197749030341
20
-19.766439594822828
30
0
11
56.559407300681443
21
-19.766439594822828
31
0
0
SPLINE
5
107
100
AcDbEntity
8
CUTOUTS
100
AcDbSpline
70
0
71
3
72
17
73
13
74
0
42
0.000000001
43
0.0000000001
44
0.0000000001
40
-0.97087283681412384
40
-0.97087283681412384
40
-0.97087283681412384
40
-0.97087283681412384
40
-0.71589968004167548
40
-0.71589968004167548
40
-0.71589968004167548
40
-0.52315733143160958
40
-0.52315733143160958
40
-0.52315733143160958
40
-0.28894330755471109
40
-0.28894330755471109
40
-0.28894330755471109
40
0
40
0
40
0
40
0
10
-74.003131128462215
20
-1.3631612612759358
30
0
10
-71.864720557951358
20
-1.4108830307429132
30
0
10
-69.649926882085055
20
-0.79358659632160489
30
0
10
-67.856544735576918
20
0.16008996521570396
30
0
10
-66.500869921612761
20
0.88100452191595569
30
0
10
-65.420161296496403
20
1.782007506167802
30
0
10
-64.690783591339269
20
2.621563740745545
30
0
10
-63.80446831873379
20
3.6417642591547184
30
0
10
-63.443296190663141
20
4.5383339770378051
30
0
10
-62.736796464524502
20
4.8781734985533598
30
0
10
-61.865207461108163
20
5.2974240359854186
30
0
10
-60.413593418144103
20
4.9085445280074547
30
0
10
-59.419515625410064
20
3.4574986580223399
30
0
0
SPLINE
5
108
100
AcDbEntity
8
CUTOUTS
100
AcDbSpline
70
0
71
3
72
17
73
13
74
0
42
0.000000001
43
0.0000000001
44
0.0000000001
40
0
40
0
40
0
40
0
40
0.039064447338693145
40
0.039064447338693145
40
0.039064447338693145
40
0.07812889467738586
40
0.07812889467738586
40
0.07812889467738586
40
0.10257991609417584
40
0.10257991609417584
40
0.10257991609417584
40
0.12703093751096498
40
0.12703093751096498
40
0.12703093751096498
40
0.12703093751096498
10
-74.003131128446597
20
-1.3631612612762911
30
0
10
-74.123549859054989
20
-1.3604739406183786
30
0
10
-74.243342214447097
20
-1.3813327680128751
30
0
10
-74.355765442143934
20
-1.4245636626124458
30
0
10
-74.468188669840771
20
-1.4677945572120166
30
0
10
-74.571093115177987
20
-1.5325708971866048
30
0
10
-74.658686595493975
20
-1.6152466165955737
30
0
10
-74.713512663929237
20
-1.6669945849820378
30
0
10
-74.761807225348804
20
-1.7252517789613497
30
0
10
-74.802494574543616
20
-1.7887205872666367
30
0
10
-74.843181923738442
20
-1.8521893955719193
30
0
10
-74.875957713246294
20
-1.9203950620167864
30
0
10
-74.900091900460566
20
-1.9918183846761339
30
0
0
LINE
5
109
100
AcDbEntity
8
CUTOUTS
100
AcDbLine
10
-80.906197749030383
20
-19.766439594822828
30
0
11
-74.900091900460552
21
-1.9918183846761295
31
0
0
LINE
5
10A
100
AcDbEntity
8
CUTOUTS
100
AcDbLine
10
-56.559407300681464
20
-19.766439594822831
30
0
11
-80.906197749030383
21
-19.766439594822828
31
0
0
LINE
5
10B
100
AcDbEntity
8
CUTOUTS
100
AcDbLine
10
-56.559407300681464
20
-1.7780518063950623
30
0
11
-56.559407300681464
21
-19.766439594822831
31
0
0
ARC
5
10C
100
AcDbEntity
8
CUTOUTS
100
AcDbCircle
10
-59.984407300681468
20
-1.7780518063950623
30
0
40
3.4250000000000025
210
-0
220
0
230
1
100
AcDbArc
50
0
51
34.414136426251233
0
LINE
5
10D
100
AcDbEntity
8
CUTOUTS
100
AcDbLine
10
-59.419515625410064
20
3.4574986580223444
30
0
11
-57.158871075144958
21
0.15765737583786521
31
0
0
LINE
5
10E
100
AcDbEntity
8
PERIMETER
100
AcDbLine
10
47.397538743818757
20
-0.51528877627355474
30
0
11
47.397538743818757
21
-11.026796310685381
31
0
0
LINE
5
10F
100
AcDbEntity
8
PERIMETER
100
AcDbLine
10
47.397538743818757
20
-11.026796310685381
30
0
11
28.469780485591428
21
-11.026796310685381
31
0
0
SPLINE
5
110
100
AcDbEntity
8
PERIMETER
100
AcDbSpline
70
0
71
3
72
11
73
7
74
0
42
0.000000001
43
0.0000000001
44
0.0000000001
40
0
40
0
40
0
40
0
40
0.022197509284562107
40
0.022197509284562107
40
0.022197509284562107
40
0.044395018569124499
40
0.044395018569124499
40
0.044395018569124499
40
0.044395018569124499
10
28.469780485591428
20
-11.026796310685381
30
0
10
28.39301409931565
20
-11.026796310685381
30
0
10
28.316306826071049
20
-11.031056367115628
30
0
10
28.24001252595756
20
-11.039556827811074
30
0
10
28.163718225844072
20
-11.04805728850652
30
0
10
28.087954397875517
20
-11.06078506211241
30
0
10
28.013070549922571
20
-11.077681433841347
30
0
0
SPLINE
5
111
100
AcDbEntity
8
PERIMETER
100
AcDbSpline
70
0
71
3
72
14
73
10
74
0
42
0.000000001
43
0.0000000001
44
0.0000000001
40
-0.0030183095438654807
40
-0.0030183095438654807
40
-0.0030183095438654807
40
-0.0030183095438654807
40
0
40
0
40
0
40
0.59175599917781552
40
0.59175599917781552
40
0.59175599917781552
40
0.99131534753231365
40
0.99131534753231365
40
0.99131534753231365
40
0.99131534753231365
10
3.4249999999999785
20
-12.874483042233422
30
0
10
3.4499999999999802
20
-12.874483042233422
30
0
10
3.4749999999999814
20
-12.874483042233422
30
0
10
3.4999999999999827
20
-12.874483042233422
30
0
10
8.4005413987375626
20
-12.874483042233422
30
0
10
13.2695060876173
20
-12.840886379916371
30
0
10
18.138033972836119
20
-12.482611831190315
30
0
10
21.425310877449647
20
-12.240701406251862
30
0
10
24.713684982553463
20
-11.822136300241699
30
0
10
28.013070549922574
20
-11.077681433841347
30
0
0
LINE
5
112
100
AcDbEntity
8
PERIMETER
100
AcDbLine
10
3.4249999999999785
20
-12.874483042233422
30
0
11
3.4249999999999803
21
-17.374483042233422
31
0
0
LINE
5
113
100
AcDbEntity
8
PERIMETER
100
AcDbLine
10
3.4249999999999803
20
-17.374483042233422
30
0
11
-3.4250000000000158
21
-17.374483042233422
31
0
0
LINE
5
114
100
AcDbEntity
8
PERIMETER
100
AcDbLine
10
-3.4250000000000158
20
-17.374483042233422
30
0
11
-3.4250000000000176
21
-12.874483042233422
31
0
0
SPLINE
5
115
100
AcDbEntity
8
PERIMETER
100
AcDbSpline
70
0
71
3
72
14
73
10
74
0
42
0.000000001
43
0.0000000001
44
0.0000000001
40
-0.0030183095438656368
40
-0.0030183095438656368
40
-0.0030183095438656368
40
-0.0030183095438656368
40
0
40
0
40
0
40
0.59175599917781552
40
0.59175599917781552
40
0.59175599917781552
40
0.99131534753231365
40
0.99131534753231365
40
0.99131534753231365
40
0.99131534753231365
10
-3.4250000000000096
20
-12.874483042233427
30
0
10
-3.4500000000000131
20
-12.87448304223342
30
0
10
-3.4750000000000152
20
-12.87448304223342
30
0
10
-3.5000000000000182
20
-12.874483042233422
30
0
10
-8.4005413987375981
20
-12.874483042233422
30
0
10
-13.269506087617335
20
-12.840886379916371
30
0
10
-18.138033972836155
20
-12.482611831190315
30
0
10
-21.425310877449682
20
-12.240701406251862
30
0
10
-24.713684982553499
20
-11.822136300241699
30
0
10
-28.01307054992261
20
-11.077681433841347
30
0
0
SPLINE
5
116
100
AcDbEntity
8
PERIMETER
100
AcDbSpline
70
0
71
3
72
11
73
7
74
0
42
0.000000001
43
0.0000000001
44
0.0000000001
40
0
40
0
40
0
40
0
40
0.022197509284562107
40
0.022197509284562107
40
0.022197509284562107
40
0.044395018569124499
40
0.044395018569124499
40
0.044395018569124499
40
0.044395018569124499
10
-28.469780485591464
20
-11.026796310685381
30
0
10
-28.393014099315685
20
-11.026796310685381
30
0
10
-28.316306826071084
20
-11.031056367115628
30
0
10
-28.240012525957596
20
-11.039556827811074
30
0
10
-28.163718225844107
20
-11.04805728850652
30
0
10
-28.087954397875553
20
-11.06078506211241
30
0
10
-28.013070549922606
20
-11.077681433841347
30
0
0
LINE
5
117
100
AcDbEntity
8
PERIMETER
100
AcDbLine
10
-28.469780485591464
20
-11.026796310685381
30
0
11
-47.397538743818792
21
-11.026796310685381
31
0
0
LINE
5
118
100
AcDbEntity
8
PERIMETER
100
AcDbLine
10
-47.397538743818792
20
-11.026796310685381
30
0
11
-47.397538743818792
21
-0.51528877627355474
31
0
0
SPLINE
5
119
100
AcDbEntity
8
PERIMETER
100
AcDbSpline
70
0
71
3
72
11
73
7
74
0
42
0.000000001
43
0.0000000001
44
0.0000000001
40
0
40
0
40
0
40
0
40
0.068596882236238388
40
0.068596882236238388
40
0.068596882236238388
40
0.13719376447247636
40
0.13719376447247636
40
0.13719376447247636
40
0.13719376447247636
10
-47.864706164347446
20
0.79638930785780104
30
0
10
-47.71474445256576
20
0.61256880434183092
30
0
10
-47.597411136107468
20
0.40438505031507255
30
0
10
-47.517816563763148
20
0.18090530499866642
30
0
10
-47.438221991418807
20
-0.042574440317735274
30
0
10
-47.397538743818792
20
-0.27805789187322905
30
0
10
-47.397538743818792
20
-0.51528877627355474
30
0
0
SPLINE
5
11A
100
AcDbEntity
8
PERIMETER
100
AcDbSpline
70
0
71
3
72
14
73
10
74
0
42
0.000000001
43
0.0000000001
44
0.0000000001
40
0.042911325903621136
40
0.042911325903621136
40
0.042911325903621136
40
0.042911325903621136
40
0.38493318428569506
40
0.38493318428569506
40
0.38493318428569506
40
0.78953829868986025
40
0.78953829868986025
40
0.78953829868986025
40
0.98454888259375839
40
0.98454888259375839
40
0.98454888259375839
40
0.98454888259375839
10
-47.864706164347474
20
0.79638930785778772
30
0
10
-49.072832342605601
20
2.2772897307706819
30
0
10
-50.387158384909789
20
4.1226251413419046
30
0
10
-51.876067876414268
20
6.5711628490143559
30
0
10
-53.637418446220977
20
9.4677346763886749
30
0
10
-55.642798553576078
20
13.206769248477364
30
0
10
-58.25034765423127
20
19.026769398498583
30
0
10
-59.507127795099457
20
21.831878842673046
30
0
10
-60.908333407922157
20
25.136125188088027
30
0
10
-62.482629010585775
20
29.038700905803395
30
0
0
SPLINE
5
11B
100
AcDbEntity
8
PERIMETER
100
AcDbSpline
70
0
71
3
72
17
73
13
74
0
42
0.000000001
43
0.0000000001
44
0.0000000001
40
0
40
0
40
0
40
0
40
0.058596671008038774
40
0.058596671008038774
40
0.058596671008038774
40
0.11719334201607803
40
0.11719334201607803
40
0.11719334201607803
40
0.1478594328412077
40
0.1478594328412077
40
0.1478594328412077
40
0.17852552366633823
40
0.17852552366633823
40
0.17852552366633823
40
0.17852552366633823
10
-63.943261513732963
20
30.024483042233442
30
0
10
-63.738173165204834
20
30.024483042233442
30
0
10
-63.535045573070413
20
29.984424727279158
30
0
10
-63.345312180398203
20
29.906562859801614
30
0
10
-63.155578787725986
20
29.82870099232407
30
0
10
-62.982867503809246
20
29.714524376105441
30
0
10
-62.836899728932408
20
29.57045967050583
30
0
10
-62.760508682053633
20
29.495064579443277
30
0
10
-62.692024227026536
20
29.412057851874277
30
0
10
-62.632514869812574
20
29.32273457269384
30
0
10
-62.573005512598606
20
29.233411293513406
30
0
10
-62.522782362852489
20
29.138238436922602
30
0
10
-62.482629010585768
20
29.038700905803388
30
0
0
LINE
5
11C
100
AcDbEntity
8
PERIMETER
100
AcDbLine
10
-63.943261513732963
20
30.024483042233442
30
0
11
-70.65520758161486
21
30.024483042233449
31
0
0
ARC
5
11D
100
AcDbEntity
8
PERIMETER
100
AcDbCircle
10
-70.655207581614889
20
27.949483042233471
30
0
40
2.074999999999978
210
0
220
-0
230
1
100
AcDbArc
50
89.999999999999218
51
160.0994473355421
0
LINE
5
11E
100
AcDbEntity
8
PERIMETER
100
AcDbLine
10
-72.606298632351908
20
28.655789428820647
30
0
11
-93.848900917532973
21
-30.024483042233442
31
0
0
LINE
5
11F
100
AcDbEntity
8
PERIMETER
100
AcDbLine
10
-93.848900917532973
20
-30.024483042233442
30
0
11
93.84890091753293
21
-30.024483042233445
31
0
0
LINE
5
120
100
AcDbEntity
8
PERIMETER
100
AcDbLine
10
93.84890091753293
20
-30.024483042233445
30
0
11
72.606298632351866
21
28.655789428820633
31
0
0
ARC
5
121
100
AcDbEntity
8
PERIMETER
100
AcDbCircle
10
70.655207581614832
20
27.949483042233446
30
0
40
2.0750000000000051
210
0
220
-0
230
1
100
AcDbArc
50
19.900552664458043
51
89.999999999999602
0
LINE
5
122
100
AcDbEntity
8
PERIMETER
100
AcDbLine
10
70.655207581614832
20
30.024483042233449
30
0
11
63.943261513732928
21
30.024483042233449
31
0
0
SPLINE
5
123
100
AcDbEntity
8
PERIMETER
100
AcDbSpline
70
0
71
3
72
17
73
13
74
0
42
0.000000001
43
0.0000000001
44
0.0000000001
40
0
40
0
40
0
40
0
40
0.058596671008038774
40
0.058596671008038774
40
0.058596671008038774
40
0.11719334201607803
40
0.11719334201607803
40
0.11719334201607803
40
0.1478594328412077
40
0.1478594328412077
40
0.1478594328412077
40
0.17852552366633823
40
0.17852552366633823
40
0.17852552366633823
40
0.17852552366633823
10
63.943261513732928
20
30.024483042233442
30
0
10
63.738173165204799
20
30.024483042233442
30
0
10
63.535045573070377
20
29.984424727279158
30
0
10
63.345312180398167
20
29.906562859801614
30
0
10
63.15557878772595
20
29.82870099232407
30
0
10
62.98286750380921
20
29.714524376105441
30
0
10
62.836899728932366
20
29.57045967050583
30
0
10
62.760508682053597
20
29.495064579443277
30
0
10
62.692024227026494
20
29.412057851874277
30
0
10
62.632514869812539
20
29.32273457269384
30
0
10
62.57300551259857
20
29.233411293513406
30
0
10
62.522782362852453
20
29.138238436922602
30
0
10
62.482629010585732
20
29.038700905803388
30
0
0
SPLINE
5
124
100
AcDbEntity
8
PERIMETER
100
AcDbSpline
70
0
71
3
72
14
73
10
74
0
42
0.000000001
43
0.0000000001
44
0.0000000001
40
0.042911325903621136
40
0.042911325903621136
40
0.042911325903621136
40
0.042911325903621136
40
0.38493318428569506
40
0.38493318428569506
40
0.38493318428569506
40
0.78953829868986025
40
0.78953829868986025
40
0.78953829868986025
40
0.98454888259375839
40
0.98454888259375839
40
0.98454888259375839
40
0.98454888259375839
10
47.864706164347439
20
0.79638930785778772
30
0
10
49.072832342605565
20
2.2772897307706819
30
0
10
50.387158384909753
20
4.1226251413419046
30
0
10
51.876067876414226
20
6.5711628490143559
30
0
10
53.637418446220941
20
9.4677346763886749
30
0
10
55.642798553576043
20
13.206769248477364
30
0
10
58.250347654231234
20
19.026769398498583
30
0
10
59.507127795099422
20
21.831878842673046
30
0
10
60.908333407922122
20
25.136125188088027
30
0
10
62.48262901058574
20
29.038700905803395
30
0
0
SPLINE
5
125
100
AcDbEntity
8
PERIMETER
100
AcDbSpline
70
0
71
3
72
11
73
7
74
0
42
0.000000001
43
0.0000000001
44
0.0000000001
40
0
40
0
40
0
40
0
40
0.068596882236238388
40
0.068596882236238388
40
0.068596882236238388
40
0.13719376447247636
40
0.13719376447247636
40
0.13719376447247636
40
0.13719376447247636
10
47.86470616434741
20
0.79638930785780104
30
0
10
47.714744452565725
20
0.61256880434183092
30
0
10
47.597411136107432
20
0.40438505031507255
30
0
10
47.517816563763105
20
0.18090530499866642
30
0
10
47.438221991418771
20
-0.042574440317735274
30
0
10
47.397538743818757
20
-0.27805789187322905
30
0
10
47.397538743818757
20
-0.51528877627355474
30
0
0
ENDSEC
0
SECTION
2
OBJECTS
0
DICTIONARY
5
C
100
AcDbDictionary
3
ACAD_GROUP
350
D
3
ACAD_MLINESTYLE
350
17
0
DICTIONARY
5
D
100
AcDbDictionary
0
DICTIONARY
5
1A
330
C
100
AcDbDictionary
0
DICTIONARY
5
17
100
AcDbDictionary
0
ENDSEC
0
EOF
