<?xml version="1.0" encoding="utf-8"?>
<!-- Generator: Adobe Illustrator 24.1.2, SVG Export Plug-In . SVG Version: 6.00 Build 0)  -->
<svg version="1.1" xmlns="http://www.w3.org/2000/svg" xmlns:xlink="http://www.w3.org/1999/xlink" x="0px" y="0px"
	 viewBox="0 0 595.28 841.89" style="enable-background:new 0 0 595.28 841.89;" xml:space="preserve">
<style type="text/css">
	.st0{fill:none;stroke:#FF0000;stroke-width:0.7087;stroke-linecap:round;stroke-linejoin:round;stroke-miterlimit:10;}
	.st1{fill:none;stroke:#0000FF;stroke-width:0.7087;stroke-linecap:round;stroke-linejoin:round;stroke-miterlimit:10;}
</style>
<g id="CUTOUTS">
	<g id="LINE">
		<line class="st0" x1="458.46" y1="319.48" x2="458.46" y2="268.49"/>
	</g>
	<g id="ARC">
		<path class="st0" d="M460.16,263c-1.11,1.62-1.7,3.53-1.7,5.49"/>
	</g>
	<g id="LINE_1_">
		<line class="st0" x1="460.16" y1="263" x2="466.57" y2="253.64"/>
	</g>
	<g id="SPLINE">
		<path class="st0" d="M507.91,267.31c-6.06,0.14-12.34-1.61-17.42-4.32c-3.84-2.04-6.91-4.6-8.97-6.98
			c-2.51-2.89-3.54-5.43-5.54-6.4c-2.47-1.19-6.59-0.09-9.4,4.03"/>
	</g>
	<g id="SPLINE_1_">
		<path class="st0" d="M507.91,267.31c0.34-0.01,0.68,0.05,1,0.17c0.32,0.12,0.61,0.31,0.86,0.54c0.16,0.15,0.29,0.31,0.41,0.49
			c0.12,0.18,0.21,0.37,0.28,0.58"/>
	</g>
	<g id="LINE_2_">
		<line class="st0" x1="510.45" y1="269.09" x2="527.48" y2="319.48"/>
	</g>
	<g id="LINE_3_">
		<line class="st0" x1="527.48" y1="319.48" x2="458.46" y2="319.48"/>
	</g>
	<g id="SPLINE_2_">
		<path class="st0" d="M88.37,267.31c6.06,0.14,12.34-1.61,17.42-4.32c3.84-2.04,6.91-4.6,8.97-6.98c2.51-2.89,3.54-5.43,5.54-6.4
			c2.47-1.19,6.59-0.09,9.4,4.03"/>
	</g>
	<g id="SPLINE_3_">
		<path class="st0" d="M88.37,267.31c-0.34-0.01-0.68,0.05-1,0.17c-0.32,0.12-0.61,0.31-0.86,0.54c-0.16,0.15-0.29,0.31-0.41,0.49
			c-0.12,0.18-0.21,0.37-0.28,0.58"/>
	</g>
	<g id="LINE_4_">
		<line class="st0" x1="68.8" y1="319.48" x2="85.82" y2="269.09"/>
	</g>
	<g id="LINE_5_">
		<line class="st0" x1="137.81" y1="319.48" x2="68.8" y2="319.48"/>
	</g>
	<g id="LINE_6_">
		<line class="st0" x1="137.81" y1="268.49" x2="137.81" y2="319.48"/>
	</g>
	<g id="ARC_1_">
		<path class="st0" d="M137.81,268.49c0-1.96-0.59-3.87-1.7-5.49"/>
	</g>
	<g id="LINE_7_">
		<line class="st0" x1="129.7" y1="253.64" x2="136.11" y2="263"/>
	</g>
</g>
<g id="PERIMETER">
	<g id="LINE_31_">
		<line class="st1" x1="432.49" y1="264.91" x2="432.49" y2="294.7"/>
	</g>
	<g id="LINE_30_">
		<line class="st1" x1="432.49" y1="294.7" x2="378.84" y2="294.7"/>
	</g>
	<g id="SPLINE_23_">
		<path class="st1" d="M378.84,294.7c-0.22,0-0.44,0.01-0.65,0.04c-0.22,0.02-0.43,0.06-0.64,0.11"/>
	</g>
	<g id="SPLINE_22_">
		<path class="st1" d="M307.85,299.94c0.07,0,0.14,0,0.21,0c13.89,0,27.69-0.1,41.49-1.11c9.32-0.69,18.64-1.87,27.99-3.98"/>
	</g>
	<g id="LINE_29_">
		<line class="st1" x1="307.85" y1="299.94" x2="307.85" y2="312.7"/>
	</g>
	<g id="LINE_28_">
		<line class="st1" x1="307.85" y1="312.7" x2="288.43" y2="312.7"/>
	</g>
	<g id="LINE_27_">
		<line class="st1" x1="288.43" y1="312.7" x2="288.43" y2="299.94"/>
	</g>
	<g id="SPLINE_21_">
		<path class="st1" d="M288.43,299.94c-0.07,0-0.14,0-0.21,0c-13.89,0-27.69-0.1-41.49-1.11c-9.32-0.69-18.64-1.87-27.99-3.98"/>
	</g>
	<g id="SPLINE_20_">
		<path class="st1" d="M217.44,294.7c0.22,0,0.44,0.01,0.65,0.04c0.22,0.02,0.43,0.06,0.64,0.11"/>
	</g>
	<g id="LINE_26_">
		<line class="st1" x1="217.44" y1="294.7" x2="163.78" y2="294.7"/>
	</g>
	<g id="LINE_25_">
		<line class="st1" x1="163.78" y1="294.7" x2="163.78" y2="264.91"/>
	</g>
	<g id="SPLINE_19_">
		<path class="st1" d="M162.46,261.19c0.43,0.52,0.76,1.11,0.98,1.74c0.23,0.63,0.34,1.3,0.34,1.97"/>
	</g>
	<g id="SPLINE_18_">
		<path class="st1" d="M162.46,261.19c-3.42-4.2-7.15-9.43-11.37-16.37c-4.99-8.21-10.68-18.81-18.07-35.31
			c-3.56-7.95-7.53-17.32-12-28.38"/>
	</g>
	<g id="SPLINE_17_">
		<path class="st1" d="M116.88,178.34c0.58,0,1.16,0.11,1.69,0.33c0.54,0.22,1.03,0.54,1.44,0.95c0.22,0.21,0.41,0.45,0.58,0.7
			s0.31,0.52,0.42,0.81"/>
	</g>
	<g id="LINE_24_">
		<line class="st1" x1="116.88" y1="178.34" x2="97.86" y2="178.34"/>
	</g>
	<g id="ARC_5_">
		<path class="st1" d="M97.86,178.34c-2.48,0-4.69,1.55-5.53,3.88"/>
	</g>
	<g id="LINE_23_">
		<line class="st1" x1="92.32" y1="182.22" x2="32.11" y2="348.55"/>
	</g>
	<g id="LINE_22_">
		<line class="st1" x1="32.11" y1="348.55" x2="564.17" y2="348.55"/>
	</g>
	<g id="LINE_21_">
		<line class="st1" x1="564.17" y1="348.55" x2="503.95" y2="182.22"/>
	</g>
	<g id="ARC_4_">
		<path class="st1" d="M503.95,182.22c-0.84-2.33-3.05-3.88-5.53-3.88"/>
	</g>
	<g id="LINE_20_">
		<line class="st1" x1="498.42" y1="178.34" x2="479.39" y2="178.34"/>
	</g>
	<g id="SPLINE_16_">
		<path class="st1" d="M479.39,178.34c-0.58,0-1.16,0.11-1.69,0.33c-0.54,0.22-1.03,0.54-1.44,0.95c-0.22,0.21-0.41,0.45-0.58,0.7
			c-0.17,0.25-0.31,0.52-0.42,0.81"/>
	</g>
	<g id="SPLINE_15_">
		<path class="st1" d="M433.82,261.19c3.42-4.2,7.15-9.43,11.37-16.37c4.99-8.21,10.68-18.81,18.07-35.31
			c3.56-7.95,7.53-17.32,12-28.38"/>
	</g>
	<g id="SPLINE_14_">
		<path class="st1" d="M433.82,261.19c-0.43,0.52-0.76,1.11-0.98,1.74c-0.23,0.63-0.34,1.3-0.34,1.97"/>
	</g>
	<g id="LINE_37_">
		<line class="st0" x1="509.95" y1="533.06" x2="527.47" y2="582.98"/>
	</g>
	<g id="LINE_36_">
		<line class="st0" x1="527.47" y1="582.98" x2="476.34" y2="582.98"/>
	</g>
	<g id="LINE_35_">
		<line class="st0" x1="476.34" y1="582.98" x2="476.34" y2="523.32"/>
	</g>
	<g id="SPLINE_29_">
		<path class="st0" d="M476.34,523.32c0-0.23,0.05-0.46,0.13-0.67s0.22-0.41,0.38-0.57s0.35-0.3,0.57-0.39
			c0.21-0.09,0.44-0.14,0.67-0.14c0.19,0,0.38,0.03,0.56,0.08s0.35,0.14,0.51,0.26"/>
	</g>
	<g id="SPLINE_28_">
		<path class="st0" d="M507.38,531.31c-9.74,0.36-16.53-2.24-22.46-5.66c-2.01-1.16-3.92-2.42-5.75-3.76"/>
	</g>
	<g id="SPLINE_27_">
		<path class="st0" d="M507.38,531.31c0.34-0.01,0.68,0.04,1,0.16c0.32,0.12,0.61,0.3,0.87,0.53c0.16,0.15,0.3,0.31,0.42,0.49
			c0.12,0.18,0.21,0.37,0.29,0.58"/>
	</g>
	<g id="LINE_34_">
		<line class="st0" x1="119.93" y1="582.98" x2="68.8" y2="582.98"/>
	</g>
	<g id="LINE_33_">
		<line class="st0" x1="68.8" y1="582.98" x2="86.33" y2="533.06"/>
	</g>
	<g id="SPLINE_26_">
		<path class="st0" d="M88.9,531.31c-0.34-0.01-0.68,0.04-1,0.16c-0.32,0.12-0.61,0.3-0.87,0.53c-0.16,0.15-0.3,0.31-0.42,0.49
			c-0.12,0.18-0.21,0.37-0.29,0.58"/>
	</g>
	<g id="SPLINE_25_">
		<path class="st0" d="M88.9,531.31c9.74,0.36,16.53-2.24,22.46-5.66c2.01-1.16,3.92-2.42,5.75-3.76"/>
	</g>
	<g id="SPLINE_24_">
		<path class="st0" d="M119.93,523.32c0-0.23-0.05-0.46-0.13-0.67s-0.22-0.41-0.38-0.57c-0.16-0.16-0.35-0.3-0.57-0.39
			c-0.21-0.09-0.44-0.14-0.67-0.14c-0.19,0-0.38,0.03-0.56,0.08c-0.18,0.06-0.35,0.14-0.51,0.26"/>
	</g>
	<g id="LINE_32_">
		<line class="st0" x1="119.93" y1="523.32" x2="119.93" y2="582.98"/>
	</g>
	<g id="LINE_19_">
		<line class="st1" x1="452.76" y1="513.17" x2="452.76" y2="544.89"/>
	</g>
	<g id="LINE_18_">
		<line class="st1" x1="452.76" y1="544.89" x2="394.09" y2="544.89"/>
	</g>
	<g id="SPLINE_6_">
		<path class="st1" d="M394.09,544.89c-0.3,0-0.6,0.02-0.89,0.07s-0.59,0.11-0.87,0.2"/>
	</g>
	<g id="SPLINE_7_">
		<path class="st1" d="M307.85,557.77c0.07,0,0.14,0,0.21,0c9.34,0,21.45-0.82,34.72-2.43c13.18-1.6,27.32-3.98,41.15-7.73
			c2.81-0.76,5.61-1.58,8.4-2.45"/>
	</g>
	<g id="LINE_8_">
		<line class="st1" x1="307.85" y1="557.77" x2="307.85" y2="576.2"/>
	</g>
	<g id="LINE_9_">
		<line class="st1" x1="307.85" y1="576.2" x2="288.43" y2="576.2"/>
	</g>
	<g id="LINE_10_">
		<line class="st1" x1="288.43" y1="576.2" x2="288.43" y2="557.77"/>
	</g>
	<g id="SPLINE_8_">
		<path class="st1" d="M288.43,557.77c-0.07,0-0.14,0-0.21,0c-9.34,0-21.45-0.82-34.72-2.43c-13.18-1.6-27.32-3.98-41.15-7.73
			c-2.81-0.76-5.61-1.58-8.4-2.45"/>
	</g>
	<g id="SPLINE_9_">
		<path class="st1" d="M202.19,544.89c0.3,0,0.6,0.02,0.89,0.07s0.59,0.11,0.87,0.2"/>
	</g>
	<g id="LINE_11_">
		<line class="st1" x1="202.19" y1="544.89" x2="143.51" y2="544.89"/>
	</g>
	<g id="LINE_12_">
		<line class="st1" x1="143.51" y1="544.89" x2="143.51" y2="513.17"/>
	</g>
	<g id="SPLINE_10_">
		<path class="st1" d="M141.88,509.1c0.52,0.54,0.93,1.18,1.21,1.88c0.28,0.7,0.42,1.44,0.42,2.19"/>
	</g>
	<g id="SPLINE_11_">
		<path class="st1" d="M141.88,509.1c-6.18-6.44-10.98-13.7-15.34-22.36c-4.93-9.8-9.43-21.48-14.69-37.55
			c-0.45-1.39-0.91-2.8-1.38-4.26"/>
	</g>
	<g id="SPLINE_12_">
		<path class="st1" d="M106.21,441.84c0.58,0,1.16,0.11,1.69,0.33s1.03,0.54,1.44,0.95c0.26,0.25,0.48,0.53,0.67,0.84
			c0.19,0.31,0.34,0.63,0.45,0.98"/>
	</g>
	<g id="LINE_13_">
		<line class="st1" x1="106.21" y1="441.84" x2="97.86" y2="441.84"/>
	</g>
	<g id="ARC_3_">
		<path class="st1" d="M97.86,441.84c-2.48,0-4.69,1.55-5.53,3.88"/>
	</g>
	<g id="LINE_14_">
		<line class="st1" x1="92.32" y1="445.72" x2="32.11" y2="612.05"/>
	</g>
	<g id="LINE_15_">
		<line class="st1" x1="32.11" y1="612.05" x2="564.17" y2="612.05"/>
	</g>
	<g id="LINE_16_">
		<line class="st1" x1="564.17" y1="612.05" x2="503.95" y2="445.72"/>
	</g>
	<g id="ARC_2_">
		<path class="st1" d="M503.95,445.72c-0.84-2.33-3.05-3.88-5.53-3.88"/>
	</g>
	<g id="LINE_17_">
		<line class="st1" x1="498.42" y1="441.84" x2="490.07" y2="441.84"/>
	</g>
	<g id="SPLINE_13_">
		<path class="st1" d="M490.07,441.84c-0.58,0-1.16,0.11-1.69,0.33c-0.54,0.22-1.03,0.54-1.44,0.95c-0.26,0.25-0.48,0.53-0.67,0.84
			c-0.19,0.31-0.34,0.63-0.45,0.98"/>
	</g>
	<g id="SPLINE_5_">
		<path class="st1" d="M454.4,509.1c6.18-6.44,10.98-13.7,15.34-22.36c4.93-9.8,9.43-21.48,14.69-37.55
			c0.45-1.39,0.91-2.8,1.38-4.26"/>
	</g>
	<g id="SPLINE_4_">
		<path class="st1" d="M454.4,509.1c-0.52,0.54-0.93,1.18-1.21,1.88c-0.28,0.7-0.42,1.44-0.42,2.19"/>
	</g>
</g>
</svg>
